<?xml version="1.0" ?><!DOCTYPE svg  PUBLIC '-//W3C//DTD SVG 1.1//EN'  'http://www.w3.org/Graphics/SVG/1.1/DTD/svg11.dtd'><svg enable-background="new 0 0 512 512" height="512px" id="Layer_1" version="1.1" viewBox="0 0 512 512" width="512px" xml:space="preserve" xmlns="http://www.w3.org/2000/svg" xmlns:xlink="http://www.w3.org/1999/xlink"><g><polyline fill="#1073BB" points="0,512 512,512 512,0 0,0 0,512  "/><path d="M218.381,135.438l12.765,3.957c-0.881,3.717-2.267,6.821-4.156,9.316c-1.89,2.496-4.237,4.379-7.039,5.648   c-2.803,1.271-6.371,1.906-10.703,1.906c-5.256,0-9.549-0.761-12.88-2.278c-3.332-1.52-6.205-4.191-8.624-8.017   c-2.417-3.823-3.627-8.717-3.627-14.679c0-7.952,2.116-14.063,6.352-18.336c4.233-4.272,10.226-6.407,17.972-6.407   c6.067,0,10.835,1.247,14.303,3.742c3.467,2.494,6.045,6.324,7.731,11.49l-13.437,2.907c-0.455-1.456-0.93-2.52-1.428-3.191   c-0.826-1.133-1.834-2.006-3.028-2.614c-1.193-0.609-2.525-0.912-3.995-0.912c-3.337,0-5.896,1.325-7.673,3.977   c-1.344,1.969-2.016,5.057-2.016,9.271c0,5.214,0.835,8.787,2.51,10.723c1.672,1.936,4.019,2.902,7.043,2.902   c2.939,0,5.16-0.803,6.66-2.408C216.612,140.829,217.703,138.496,218.381,135.438" fill="#FFFFFF"/><path d="M235.177,139.669l14.78-0.872c0.288,2.269,0.873,3.994,1.754,5.178c1.435,1.922,3.484,2.885,6.151,2.885   c1.989,0,3.519-0.503,4.593-1.506c1.073-1.004,1.611-2.169,1.611-3.491c0-1.252-0.475-2.375-1.428-3.368   c-0.959-0.994-3.418-1.934-7.381-2.814c-6.486-1.477-11.112-3.424-13.876-5.847c-2.793-2.422-4.188-5.506-4.188-9.25   c0-2.471,0.719-4.799,2.152-6.989c1.435-2.19,3.593-3.913,6.471-5.167c2.88-1.251,6.831-1.877,11.849-1.877   c6.151,0,10.841,1.159,14.07,3.479c3.231,2.321,5.153,6.014,5.77,11.081l-14.781,0.892c-0.321-2.344-0.996-4.051-2.02-5.117   c-1.025-1.069-2.442-1.602-4.248-1.602c-1.484,0-2.602,0.369-3.353,1.108c-0.753,0.74-1.129,1.636-1.129,2.692   c0,0.771,0.175,1.467,0.525,2.089c0.336,0.638,1.811,1.231,4.428,1.785c6.468,1.408,11.102,2.828,13.901,4.268   c2.799,1.438,4.834,3.223,6.109,5.354c1.273,2.132,1.909,4.516,1.909,7.153c0,3.095-0.853,5.947-2.562,8.561   c-1.707,2.614-4.093,4.598-7.157,5.948c-3.066,1.352-6.93,2.026-11.592,2.026c-8.187,0-13.858-1.563-17.01-4.688   C237.373,148.454,235.591,144.484,235.177,139.669" fill="#FFFFFF"/><path d="M283.551,139.669l14.779-0.872c0.287,2.269,0.871,3.994,1.753,5.178c1.435,1.922,3.485,2.885,6.15,2.885   c1.988,0,3.52-0.503,4.595-1.506c1.073-1.004,1.613-2.169,1.613-3.491c0-1.252-0.478-2.375-1.429-3.368   c-0.959-0.994-3.421-1.934-7.38-2.814c-6.489-1.477-11.115-3.424-13.88-5.847c-2.792-2.422-4.188-5.506-4.188-9.25   c0-2.471,0.718-4.799,2.153-6.989c1.433-2.19,3.593-3.913,6.473-5.167c2.878-1.251,6.828-1.877,11.846-1.877   c6.151,0,10.842,1.159,14.072,3.479c3.229,2.321,5.151,6.014,5.769,11.081l-14.781,0.892c-0.322-2.344-0.996-4.051-2.021-5.117   c-1.026-1.069-2.439-1.602-4.247-1.602c-1.482,0-2.602,0.369-3.354,1.108c-0.751,0.74-1.128,1.636-1.128,2.692   c0,0.771,0.175,1.467,0.523,2.089c0.337,0.638,1.815,1.231,4.433,1.785c6.467,1.408,11.099,2.828,13.899,4.268   c2.798,1.438,4.832,3.223,6.109,5.354c1.272,2.132,1.909,4.516,1.909,7.153c0,3.095-0.854,5.947-2.561,8.561   c-1.709,2.614-4.095,4.598-7.16,5.948c-3.065,1.352-6.929,2.026-11.591,2.026c-8.188,0-13.855-1.563-17.011-4.688   C285.744,148.454,283.964,144.484,283.551,139.669" fill="#FFFFFF"/><path d="M512,364.932C473.733,325.406,374,174,374,174H171l-35,178l161,160h215V364.932" fill="#010101" opacity="0.191"/><polyline fill="#FFFFFF" points="171.46,174 163.471,213.946 326.064,213.946 320.989,239.749 158.288,239.749 150.407,279.695    313,279.695 303.932,325.258 238.397,346.958 181.609,325.258 185.496,305.5 145.55,305.5 136.048,353.436 229.977,389.389    338.265,353.436 352.624,281.315 355.539,266.85 374,174 171.46,174  "/></g></svg>